<svg xmlns="http://www.w3.org/2000/svg" viewBox="0 0 700 600" font-family="monospace" font-size="12">
  <defs>
    <marker id="arrow" markerWidth="8" markerHeight="6" refX="8" refY="3" orient="auto">
      <path d="M0,0 L8,3 L0,6" fill="#333"/>
    </marker>
    <marker id="arrow-blue" markerWidth="8" markerHeight="6" refX="8" refY="3" orient="auto">
      <path d="M0,0 L8,3 L0,6" fill="#2266aa"/>
    </marker>
    <marker id="arrow-green" markerWidth="8" markerHeight="6" refX="8" refY="3" orient="auto">
      <path d="M0,0 L8,3 L0,6" fill="#228844"/>
    </marker>
    <marker id="arrow-red" markerWidth="8" markerHeight="6" refX="8" refY="3" orient="auto">
      <path d="M0,0 L8,3 L0,6" fill="#cc2222"/>
    </marker>
    <marker id="arrow-orange" markerWidth="8" markerHeight="6" refX="8" refY="3" orient="auto">
      <path d="M0,0 L8,3 L0,6" fill="#e65100"/>
    </marker>
    <marker id="arrow-indigo" markerWidth="8" markerHeight="6" refX="8" refY="3" orient="auto">
      <path d="M0,0 L8,3 L0,6" fill="#283593"/>
    </marker>
  </defs>

  <!-- Background -->
  <rect width="700" height="600" fill="#fafafa" rx="8"/>

  <!-- Title -->
  <text x="350" y="30" text-anchor="middle" font-size="16" font-weight="bold" fill="#222">Line Topology — After Settle</text>

  <!-- Partition Node -->
  <rect x="365" y="50" width="200" height="70" fill="#e8f5e9" stroke="#2e7d32" rx="6" stroke-width="2"/>
  <text x="465" y="75" text-anchor="middle" font-weight="bold" fill="#2e7d32">p0 — Partition</text>
  <text x="465" y="92" text-anchor="middle" font-size="10" fill="#1b5e20">1st contrast (1) → Growing</text>
  <text x="465" y="108" text-anchor="middle" font-size="10" fill="#1b5e20">2nd contrast (1) → Stopped</text>

  <!-- edn0 -->
  <rect x="210" y="155" width="80" height="50" fill="#ffebee" stroke="#c62828" rx="20" stroke-width="2"/>
  <text x="250" y="177" text-anchor="middle" font-weight="bold" fill="#c62828">edn0</text>
  <text x="250" y="193" text-anchor="middle" font-size="10" fill="#c62828">XOR</text>

  <!-- edn1 -->
  <rect x="400" y="155" width="80" height="50" fill="#e3f2fd" stroke="#1565c0" rx="20" stroke-width="2"/>
  <text x="440" y="177" text-anchor="middle" font-weight="bold" fill="#1565c0">edn1</text>
  <text x="440" y="193" text-anchor="middle" font-size="10" fill="#0d47a1">XOR</text>

  <!-- a0 (recognition AND gate) -->
  <rect x="440" y="340" width="70" height="40" fill="#e8eaf6" stroke="#283593" rx="6" stroke-width="2"/>
  <text x="475" y="357" text-anchor="middle" font-weight="bold" fill="#283593">a0</text>
  <text x="475" y="372" text-anchor="middle" font-size="10" fill="#283593">AND</text>

  <!-- InputNode -->
  <rect x="20" y="250" width="80" height="60" fill="#e0e0e0" stroke="#666" rx="6" stroke-width="2"/>
  <text x="60" y="275" text-anchor="middle" font-weight="bold" fill="#333">in0</text>
  <text x="60" y="290" text-anchor="middle" font-size="10" fill="#555">Input</text>
  <text x="60" y="302" text-anchor="middle" font-size="9" fill="#555">[0,1,1]→</text>

  <!-- i0 -->
  <rect x="140" y="250" width="90" height="60" fill="#fff3e0" stroke="#e65100" rx="6" stroke-width="2"/>
  <text x="185" y="270" text-anchor="middle" font-weight="bold" fill="#e65100">i0</text>
  <text x="185" y="285" text-anchor="middle" font-size="10" fill="#bf360c">holds: 0</text>
  <text x="185" y="300" text-anchor="middle" font-size="9" fill="#999">after settle</text>

  <!-- gate0 (AND between i0 and i1) -->
  <rect x="248" y="265" width="44" height="30" fill="#e8eaf6" stroke="#283593" rx="4" stroke-width="1.5"/>
  <text x="270" y="278" text-anchor="middle" font-size="8" font-weight="bold" fill="#283593">gate0</text>
  <text x="270" y="290" text-anchor="middle" font-size="7" fill="#283593">AND</text>

  <!-- i1 -->
  <rect x="310" y="250" width="90" height="60" fill="#fff3e0" stroke="#e65100" rx="6" stroke-width="2"/>
  <text x="355" y="270" text-anchor="middle" font-weight="bold" fill="#e65100">i1</text>
  <text x="355" y="285" text-anchor="middle" font-size="10" fill="#bf360c">holds: 1</text>
  <text x="355" y="300" text-anchor="middle" font-size="9" fill="#999">after settle</text>

  <!-- gate1 (AND between i1 and i2) -->
  <rect x="418" y="265" width="44" height="30" fill="#e8eaf6" stroke="#283593" rx="4" stroke-width="1.5"/>
  <text x="440" y="278" text-anchor="middle" font-size="8" font-weight="bold" fill="#283593">gate1</text>
  <text x="440" y="290" text-anchor="middle" font-size="7" fill="#283593">AND</text>

  <!-- i2 -->
  <rect x="530" y="250" width="90" height="60" fill="#fff3e0" stroke="#e65100" rx="6" stroke-width="2"/>
  <text x="575" y="270" text-anchor="middle" font-weight="bold" fill="#e65100">i2</text>
  <text x="575" y="285" text-anchor="middle" font-size="10" fill="#bf360c">holds: 1</text>
  <text x="575" y="300" text-anchor="middle" font-size="9" fill="#999">after settle</text>

  <!-- === SHIFT CASCADE (with gates) === -->
  <line x1="100" y1="280" x2="138" y2="280" stroke="#333" stroke-width="1.5" marker-end="url(#arrow)"/>
  <line x1="230" y1="275" x2="246" y2="275" stroke="#333" stroke-width="1.5" marker-end="url(#arrow)"/>
  <line x1="292" y1="275" x2="308" y2="275" stroke="#333" stroke-width="1.5" marker-end="url(#arrow)"/>
  <line x1="400" y1="275" x2="416" y2="275" stroke="#333" stroke-width="1.5" marker-end="url(#arrow)"/>
  <line x1="462" y1="275" x2="528" y2="275" stroke="#333" stroke-width="1.5" marker-end="url(#arrow)"/>

  <!-- === EDGE CONNECTIONS === -->
  <line x1="175" y1="250" x2="230" y2="207" stroke="#2266aa" stroke-width="1.5" marker-end="url(#arrow-blue)"/>
  <line x1="225" y1="205" x2="170" y2="248" stroke="#2266aa" stroke-width="1.5" marker-end="url(#arrow-blue)"/>
  <line x1="330" y1="250" x2="270" y2="207" stroke="#2266aa" stroke-width="1.5" marker-end="url(#arrow-blue)"/>
  <line x1="380" y1="250" x2="420" y2="207" stroke="#2266aa" stroke-width="1.5" marker-end="url(#arrow-blue)"/>
  <line x1="415" y1="205" x2="375" y2="248" stroke="#2266aa" stroke-width="1.5" marker-end="url(#arrow-blue)"/>
  <line x1="550" y1="250" x2="460" y2="207" stroke="#2266aa" stroke-width="1.5" marker-end="url(#arrow-blue)"/>

  <!-- === edn0 -> partition === -->
  <path d="M 250 155 C 250 125, 360 115, 365 112" fill="none" stroke="#cc2222" stroke-width="2" marker-end="url(#arrow-red)"/>
  <text x="290" y="128" text-anchor="middle" font-size="10" fill="#cc2222">0/1</text>

  <!-- === PARTITION -> i1 (Grow) === -->
  <line x1="430" y1="120" x2="360" y2="248" stroke="#228844" stroke-width="1.5" marker-end="url(#arrow-green)"/>
  <text x="410" y="190" text-anchor="middle" font-size="9" fill="#228844">Grow</text>
  <text x="410" y="202" text-anchor="middle" font-size="9" fill="#228844">(to i1)</text>

  <!-- === i2 -> partition (EndToPartition, after transfer) === -->
  <path d="M 575 250 C 575 180, 520 135, 500 120" fill="none" stroke="#e65100" stroke-width="1.5" marker-end="url(#arrow-orange)"/>
  <text x="565" y="175" text-anchor="middle" font-size="9" fill="#e65100">EndToPartition</text>
  <text x="565" y="187" text-anchor="middle" font-size="9" fill="#e65100">(after transfer)</text>

  <!-- === i1 -> a0 (recognition AND) === -->
  <line x1="355" y1="310" x2="450" y2="338" stroke="#283593" stroke-width="1.5" marker-end="url(#arrow-indigo)"/>
  <!-- === i2 -> a0 === -->
  <line x1="575" y1="310" x2="500" y2="338" stroke="#283593" stroke-width="1.5" marker-end="url(#arrow-indigo)"/>

  <!-- Behavior note -->
  <rect x="20" y="340" width="170" height="55" fill="#fff9c4" stroke="#f9a825" rx="4"/>
  <text x="105" y="358" text-anchor="middle" font-size="10" fill="#f57f17">Shift register:</text>
  <text x="105" y="372" text-anchor="middle" font-size="9" fill="#f57f17">On receive: push held</text>
  <text x="105" y="384" text-anchor="middle" font-size="9" fill="#f57f17">→ next, store new value</text>

  <!-- === LEGEND TABLE === -->
  <rect x="20" y="420" width="460" height="165" fill="#f0f0f0" rx="4" stroke="#ccc"/>

  <!-- Column headers -->
  <text x="85" y="438" text-anchor="start" font-weight="bold" fill="#333" font-size="11">Color</text>
  <text x="210" y="438" text-anchor="start" font-weight="bold" fill="#333" font-size="11">Description</text>
  <line x1="30" y1="443" x2="470" y2="443" stroke="#ccc" stroke-width="1"/>
  <line x1="200" y1="425" x2="200" y2="580" stroke="#ccc" stroke-width="0.5"/>

  <!-- Row 1 -->
  <line x1="40" y1="458" x2="70" y2="458" stroke="#333" stroke-width="1.5" marker-end="url(#arrow)"/>
  <text x="85" y="462" text-anchor="start" fill="#333" font-size="10">Shift</text>
  <text x="210" y="462" text-anchor="start" fill="#666" font-size="10">Push held value through gate to next</text>

  <!-- Row 2 -->
  <line x1="40" y1="474" x2="70" y2="474" stroke="#2266aa" stroke-width="1.5" marker-end="url(#arrow-blue)"/>
  <text x="85" y="478" text-anchor="start" fill="#2266aa" font-size="10">Edge</text>
  <text x="210" y="478" text-anchor="start" fill="#666" font-size="10">XOR between adjacent inhibitors</text>

  <!-- Row 3 -->
  <line x1="40" y1="490" x2="70" y2="490" stroke="#cc2222" stroke-width="1.5" marker-end="url(#arrow-red)"/>
  <text x="85" y="494" text-anchor="start" fill="#cc2222" font-size="10">Contrast</text>
  <text x="210" y="494" text-anchor="start" fill="#666" font-size="10">Edge sends 0 or 1 to partition</text>

  <!-- Row 4 -->
  <line x1="40" y1="506" x2="70" y2="506" stroke="#228844" stroke-width="1.5" marker-end="url(#arrow-green)"/>
  <text x="85" y="510" text-anchor="start" fill="#228844" font-size="10">Grow</text>
  <text x="210" y="510" text-anchor="start" fill="#666" font-size="10">Partition grow signal to i1</text>

  <!-- Row 5 -->
  <line x1="40" y1="522" x2="70" y2="522" stroke="#e65100" stroke-width="1.5" marker-end="url(#arrow-orange)"/>
  <text x="85" y="526" text-anchor="start" fill="#e65100" font-size="10">EndPart</text>
  <text x="210" y="526" text-anchor="start" fill="#666" font-size="10">i2 → partition (after transfer)</text>

  <!-- Row 6 -->
  <line x1="40" y1="538" x2="70" y2="538" stroke="#283593" stroke-width="1.5" marker-end="url(#arrow-indigo)"/>
  <text x="85" y="542" text-anchor="start" fill="#283593" font-size="10">AND</text>
  <text x="210" y="542" text-anchor="start" fill="#666" font-size="10">Gate (valve) or recognition AND</text>

  <!-- Row 7 -->
  <rect x="40" y="551" width="30" height="12" fill="#e8eaf6" stroke="#283593" rx="2" stroke-width="1"/>
  <text x="85" y="562" text-anchor="start" fill="#283593" font-size="10">gate0/1</text>
  <text x="210" y="562" text-anchor="start" fill="#666" font-size="10">Valve AND (right preset=1, always open)</text>
</svg>
